# This file uses centimeters as units for non-parametric coordinates.

mtllib Move_sign.mtl
g default
v -0.500000 -0.050000 0.500000
v 0.500000 -0.050000 0.500000
v -0.500000 0.050000 0.500000
v 0.500000 0.050000 0.500000
v -0.500000 0.050000 -0.500000
v 0.500000 0.050000 -0.500000
v -0.500000 -0.050000 -0.500000
v 0.500000 -0.050000 -0.500000
v -0.333333 -0.050000 0.500000
v -0.333333 -0.050000 -0.500000
v -0.333333 0.050000 -0.500000
v -0.333333 0.050000 0.500000
v -0.166666 -0.050000 0.500000
v -0.166666 -0.050000 -0.500000
v -0.166666 0.050000 -0.500000
v -0.166666 0.050000 0.500000
v 0.000000 -0.050000 0.500000
v 0.000000 -0.050000 -0.500000
v 0.000000 0.050000 -0.500000
v 0.000000 0.050000 0.500000
v 0.166667 -0.050000 0.500000
v 0.166667 -0.050000 -0.500000
v 0.166667 0.050000 -0.500000
v 0.166667 0.050000 0.500000
v 0.333333 -0.050000 0.500000
v 0.333333 -0.050000 -0.500000
v 0.333333 0.050000 -0.500000
v 0.333333 0.050000 0.500000
v -0.500000 0.050000 0.000000
v -0.333333 0.050000 0.000000
v -0.166666 0.050000 0.000000
v 0.166667 0.050000 0.000000
v 0.333333 0.050000 0.000000
v 0.500000 0.050000 0.000000
v 0.500000 -0.050000 0.000000
v 0.333333 -0.050000 0.000000
v 0.166667 -0.050000 0.000000
v 0.000000 -0.050000 0.000000
v -0.166666 -0.050000 0.000000
v -0.333333 -0.050000 0.000000
v -0.500000 -0.050000 0.000000
v -0.166666 0.050000 -0.250000
v 0.166667 0.050000 -0.250000
v -0.166666 0.128305 0.000000
v 0.000000 0.128305 0.000000
v -0.166666 0.128305 0.500000
v 0.000000 0.128305 0.500000
v 0.166667 0.128305 0.000000
v 0.166667 0.128305 0.500000
v -0.333333 0.128305 0.000000
v -0.166666 0.128305 -0.250000
v 0.000000 0.128305 -0.500000
v 0.166667 0.128305 -0.250000
v 0.333333 0.128305 0.000000
vt 0.863470 0.544078
vt 0.863470 0.275002
vt 0.998008 0.275002
vt 0.998008 0.544078
vt 0.728932 0.275002
vt 0.728932 0.544078
vt 0.453721 0.275002
vt 0.588259 0.275002
vt 0.588259 0.544078
vt 0.453721 0.544078
vt 0.722797 0.275002
vt 0.722797 0.544078
vt 0.001992 0.758768
vt 0.136530 0.758768
vt 0.136530 0.969467
vt 0.001992 0.969467
vt 0.144460 0.758768
vt 0.278998 0.758768
vt 0.278998 0.969467
vt 0.144460 0.969467
vt 0.368630 0.271011
vt 0.368630 0.136473
vt 0.413476 0.136473
vt 0.413476 0.271011
vt 0.323784 0.271011
vt 0.323784 0.203742
vt 0.368630 0.001935
vt 0.413476 0.001935
vt 0.278938 0.271011
vt 0.323784 0.136473
vt 0.323784 0.001935
vt 0.967039 0.136473
vt 0.922193 0.136473
vt 0.922193 0.001935
vt 0.967039 0.001935
vt 0.922193 0.271011
vt 0.967039 0.271011
vt 0.877347 0.136473
vt 0.877347 0.001935
vt 0.877347 0.271011
vt 0.832501 0.136473
vt 0.832501 0.001935
vt 0.832501 0.271011
vt 0.787655 0.136473
vt 0.787655 0.001935
vt 0.787655 0.271011
vt 0.742809 0.136473
vt 0.742809 0.001935
vt 0.742809 0.271011
vt 0.697963 0.001935
vt 0.697963 0.136473
vt 0.697963 0.271011
vt 0.313048 0.409540
vt 0.357894 0.409540
vt 0.357894 0.544078
vt 0.313048 0.544078
vt 0.313048 0.275002
vt 0.357894 0.275002
vt 0.402740 0.476809
vt 0.402740 0.544078
vt 0.402740 0.409540
vt 0.402740 0.275002
vt 0.447586 0.544078
vt 0.217221 0.620239
vt 0.172375 0.620239
vt 0.172375 0.485701
vt 0.217221 0.485701
vt 0.217221 0.754777
vt 0.172375 0.687508
vt 0.262067 0.620239
vt 0.262067 0.485701
vt 0.127529 0.620239
vt 0.262067 0.687508
vt 0.306913 0.620239
vt 0.226222 0.271011
vt 0.226222 0.001935
vt 0.271068 0.001935
vt 0.271068 0.271011
vt 0.181376 0.271011
vt 0.181376 0.001935
vt 0.136530 0.271011
vt 0.136530 0.001935
vt 0.091684 0.271011
vt 0.091684 0.001935
vt 0.181376 0.481710
vt 0.136530 0.481710
vt 0.046838 0.271011
vt 0.046838 0.001935
vt 0.091684 0.481710
vt 0.001992 0.001935
vt 0.001992 0.271011
vt 0.645441 0.271011
vt 0.645441 0.001935
vt 0.690287 0.001935
vt 0.690287 0.271011
vt 0.600595 0.271011
vt 0.600595 0.001935
vt 0.555750 0.271011
vt 0.555750 0.001935
vt 0.510904 0.271011
vt 0.510904 0.001935
vt 0.466058 0.271011
vt 0.466058 0.001935
vt 0.421212 0.001935
vt 0.421212 0.271011
vt 0.429008 0.548069
vt 0.473853 0.548069
vt 0.473853 0.758768
vt 0.429008 0.758768
vt 0.481629 0.548069
vt 0.526475 0.548069
vt 0.526475 0.758768
vt 0.481629 0.758768
vt 0.354003 0.758768
vt 0.421272 0.758768
vt 0.421272 0.969467
vt 0.354003 0.969467
vt 0.286734 0.758768
vt 0.286734 0.969467
vt 0.354003 0.758768
vt 0.354003 0.969467
vt 0.421272 0.758768
vt 0.421272 0.969467
vt 0.136530 0.271011
vt 0.181376 0.271011
vt 0.091684 0.271011
vn 0.000000 0.000000 1.000000
vn 0.000000 0.000000 1.000000
vn 0.000000 0.000000 1.000000
vn 0.000000 0.000000 1.000000
vn 0.000000 1.000000 0.000000
vn 0.000000 1.000000 0.000000
vn 0.000000 1.000000 0.000000
vn 0.000000 1.000000 0.000000
vn 0.000000 0.000000 -1.000000
vn 0.000000 0.000000 -1.000000
vn 0.000000 0.000000 -1.000000
vn 0.000000 0.000000 -1.000000
vn 0.000000 -1.000000 0.000000
vn 0.000000 -1.000000 0.000000
vn 0.000000 -1.000000 0.000000
vn 0.000000 -1.000000 0.000000
vn 1.000000 0.000000 0.000000
vn 1.000000 0.000000 0.000000
vn 1.000000 0.000000 0.000000
vn 1.000000 0.000000 0.000000
vn -1.000000 0.000000 0.000000
vn -1.000000 0.000000 0.000000
vn -1.000000 0.000000 0.000000
vn -1.000000 0.000000 0.000000
vn 0.000000 -1.000000 0.000000
vn 0.000000 -1.000000 0.000000
vn 0.000000 -1.000000 0.000000
vn 0.000000 -1.000000 0.000000
vn 0.000000 0.000000 -1.000000
vn 0.000000 0.000000 -1.000000
vn 0.000000 0.000000 -1.000000
vn 0.000000 0.000000 -1.000000
vn 0.000000 1.000000 0.000000
vn 0.000000 1.000000 0.000000
vn 0.000000 1.000000 0.000000
vn 0.000000 1.000000 0.000000
vn 0.000000 0.000000 1.000000
vn 0.000000 0.000000 1.000000
vn 0.000000 0.000000 1.000000
vn 0.000000 0.000000 1.000000
vn 0.000000 -1.000000 0.000000
vn 0.000000 -1.000000 0.000000
vn 0.000000 0.000000 -1.000000
vn 0.000000 0.000000 -1.000000
vn 0.000000 1.000000 0.000000
vn 0.000000 1.000000 0.000000
vn 0.000000 0.000000 1.000000
vn 0.000000 0.000000 1.000000
vn 0.000000 -1.000000 0.000000
vn 0.000000 -1.000000 0.000000
vn 0.000000 0.000000 -1.000000
vn 0.000000 0.000000 -1.000000
vn 0.000000 1.000000 0.000000
vn 0.000000 0.000000 1.000000
vn 0.000000 0.000000 1.000000
vn 0.000000 -1.000000 0.000000
vn 0.000000 -1.000000 0.000000
vn 0.000000 0.000000 -1.000000
vn 0.000000 0.000000 -1.000000
vn 0.000000 1.000000 0.000000
vn 0.000000 1.000000 0.000000
vn 0.000000 1.000000 0.000000
vn 0.000000 0.000000 1.000000
vn 0.000000 0.000000 1.000000
vn 0.000000 1.000000 0.000000
vn 0.000000 1.000000 0.000000
vn 0.000000 1.000000 0.000000
vn 0.000000 1.000000 0.000000
vn 0.000000 1.000000 0.000000
vn 0.000000 1.000000 0.000000
vn 0.000000 1.000000 0.000000
vn 0.000000 1.000000 0.000000
vn 0.000000 1.000000 0.000000
vn 0.000000 1.000000 0.000000
vn 0.000000 1.000000 0.000000
vn 0.000000 1.000000 0.000000
vn 0.000000 1.000000 0.000000
vn 0.000000 1.000000 0.000000
vn 1.000000 0.000000 0.000000
vn 1.000000 0.000000 0.000000
vn 0.000000 -1.000000 0.000000
vn 0.000000 -1.000000 0.000000
vn 0.000000 -1.000000 0.000000
vn 0.000000 -1.000000 0.000000
vn 0.000000 -1.000000 0.000000
vn 0.000000 -1.000000 0.000000
vn 0.000000 -1.000000 0.000000
vn -1.000000 0.000000 0.000000
vn -1.000000 0.000000 0.000000
vn 0.000000 1.000000 0.000000
vn 0.000000 1.000000 0.000000
vn 0.000000 1.000000 0.000000
vn 0.000000 1.000000 0.000000
vn 0.000000 1.000000 0.000000
vn -1.000000 0.000000 0.000000
vn -1.000000 0.000000 0.000000
vn -1.000000 0.000000 0.000000
vn -1.000000 0.000000 0.000000
vn 0.000000 0.000000 1.000000
vn 0.000000 0.000000 1.000000
vn 0.000000 0.000000 1.000000
vn 0.000000 0.000000 1.000000
vn 0.000000 0.000000 1.000000
vn 0.000000 0.000000 1.000000
vn 0.000000 0.000000 1.000000
vn 0.000000 0.000000 1.000000
vn 1.000000 0.000000 0.000000
vn 1.000000 0.000000 0.000000
vn 1.000000 0.000000 0.000000
vn 1.000000 0.000000 0.000000
vn -0.832051 0.000000 -0.554700
vn -0.832051 0.000000 -0.554700
vn -0.832051 0.000000 -0.554700
vn -0.832051 0.000000 -0.554700
vn 0.000000 0.000000 1.000000
vn 0.000000 0.000000 1.000000
vn 0.000000 0.000000 1.000000
vn 0.000000 0.000000 1.000000
vn -0.832051 0.000000 -0.554700
vn -0.832051 0.000000 -0.554700
vn -0.832051 0.000000 -0.554700
vn -0.832051 0.000000 -0.554700
vn 0.832051 0.000000 -0.554700
vn 0.832051 0.000000 -0.554700
vn 0.832051 0.000000 -0.554700
vn 0.832051 0.000000 -0.554700
vn 0.832050 0.000000 -0.554700
vn 0.832050 0.000000 -0.554700
vn 0.832050 0.000000 -0.554700
vn 0.832050 0.000000 -0.554700
vn 0.000000 0.000000 1.000000
vn 0.000000 0.000000 1.000000
vn 0.000000 0.000000 1.000000
vn 0.000000 0.000000 1.000000
s 1
g pCube1
usemtl initialShadingGroup
f 28/75/1 25/76/2 2/77/3 4/78/4
s 2
f 27/21/5 33/22/6 34/23/7 6/24/8
s 3
f 26/92/9 27/93/10 6/94/11 8/95/12
s 4
f 35/32/13 36/33/14 26/34/15 8/35/16
s 5
f 34/1/17 35/2/18 8/3/19 6/4/20
s 6
f 7/7/21 41/8/22 29/9/23 5/10/24
s 4
f 7/50/25 10/48/26 40/47/27 41/51/28
s 3
f 5/104/29 11/103/30 10/102/31 7/105/32
s 9
f 29/53/33 30/54/34 11/55/35 5/56/36
s 1
f 1/90/37 9/88/38 12/87/39 3/91/40
s 4
f 39/44/41 40/47/27 10/48/26 14/45/42
s 3
f 10/102/31 11/103/30 15/101/43 14/100/44
s 9
f 11/55/35 30/54/34 42/59/45 15/60/46
s 1
f 12/87/39 9/88/38 13/84/47 16/126/48
s 4
f 38/41/49 39/44/41 14/45/42 18/42/50
s 3
f 14/100/44 15/101/43 19/99/51 18/98/52
s 9
f 15/60/46 42/59/45 19/63/53
s 1
f 16/126/48 13/84/47 17/82/54 20/124/55
s 4
f 37/38/56 38/41/49 18/42/50 22/39/57
s 3
f 18/98/52 19/99/51 23/97/58 22/96/59
s 2
f 19/29/60 43/26/61 23/25/62
s 1
f 20/124/55 17/82/54 21/80/63 24/79/64
s 4
f 36/33/14 37/38/56 22/39/57 26/34/15
s 3
f 22/96/59 23/97/58 27/93/10 26/92/9
s 2
f 23/25/62 43/26/61 33/22/6 27/21/5
s 1
f 24/79/64 21/80/63 25/76/2 28/75/1
s 9
f 3/57/65 12/58/66 30/54/34 29/53/33
f 31/61/67 30/54/34 12/58/66 16/62/68
s 11
usemtl lambert2SG
f 45/64/69 44/65/70 46/66/71 47/67/72
f 48/70/73 45/64/69 47/67/72 49/71/74
s 2
usemtl initialShadingGroup
f 33/22/6 32/30/75 24/31/76 28/27/77
f 34/23/7 33/22/6 28/27/77 4/28/78
s 5
f 2/5/79 35/2/18 34/1/17 4/6/80
s 4
f 25/36/81 36/33/14 35/32/13 2/37/82
f 21/40/83 37/38/56 36/33/14 25/36/81
f 17/43/84 38/41/49 37/38/56 21/40/83
f 13/46/85 39/44/41 38/41/49 17/43/84
f 9/49/86 40/47/27 39/44/41 13/46/85
f 41/51/28 40/47/27 9/49/86 1/52/87
s 6
f 29/9/23 41/8/22 1/11/88 3/12/89
s 11
usemtl lambert2SG
f 51/69/90 50/72/91 44/65/70
f 52/68/92 51/69/90 44/65/70 45/64/69
f 52/68/92 45/64/69 48/70/73 53/73/93
f 54/74/94 53/73/93 48/70/73
s off
f 31/13/95 16/14/96 46/15/97 44/16/98
f 16/83/99 20/81/100 47/86/101 46/89/102
f 20/81/103 24/125/104 49/85/105 47/86/106
f 24/17/107 32/18/108 48/19/109 49/20/110
f 42/114/111 30/115/112 50/116/113 51/117/114
f 30/106/115 31/107/116 44/108/117 50/109/118
f 19/118/119 42/114/120 51/117/121 52/119/122
f 43/120/123 19/118/124 52/119/125 53/121/126
f 33/122/127 43/120/128 53/121/129 54/123/130
f 32/110/131 33/111/132 54/112/133 48/113/134
